<svg id="ART" xmlns="http://www.w3.org/2000/svg" xmlns:xlink="http://www.w3.org/1999/xlink" viewBox="0 0 48 48"><defs><style>.cls-1{fill:url(#linear-gradient);}.cls-2{fill:url(#linear-gradient-2);}.cls-3{fill:url(#linear-gradient-3);}.cls-4{fill:url(#linear-gradient-4);}.cls-5{fill:url(#linear-gradient-5);}.cls-6{fill:url(#linear-gradient-6);}.cls-7{fill:url(#linear-gradient-7);}.cls-8{fill:url(#linear-gradient-8);}.cls-9{fill:url(#linear-gradient-10);}.cls-10{fill:url(#linear-gradient-11);}.cls-11{fill:url(#linear-gradient-12);}.cls-12{fill:url(#linear-gradient-13);}.cls-13{fill:url(#linear-gradient-14);}</style><linearGradient id="linear-gradient" x1="24" y1="51.75" x2="24" y2="-62.67" gradientUnits="userSpaceOnUse"><stop offset="0" stop-color="#273a9b"/><stop offset="0.56" stop-color="#202f65"/><stop offset="1" stop-color="#021e2f"/></linearGradient><linearGradient id="linear-gradient-2" x1="9" y1="-12.88" x2="9" y2="-27.38" xlink:href="#linear-gradient"/><linearGradient id="linear-gradient-3" x1="16.5" y1="-12.88" x2="16.5" y2="-27.38" xlink:href="#linear-gradient"/><linearGradient id="linear-gradient-4" y1="-12.88" x2="24" y2="-27.38" xlink:href="#linear-gradient"/><linearGradient id="linear-gradient-5" x1="31.5" y1="-12.88" x2="31.5" y2="-27.38" xlink:href="#linear-gradient"/><linearGradient id="linear-gradient-6" x1="39" y1="-12.88" x2="39" y2="-27.38" xlink:href="#linear-gradient"/><linearGradient id="linear-gradient-7" x1="9" y1="-12.88" x2="9" y2="-27.38" gradientTransform="translate(15 -15)" xlink:href="#linear-gradient"/><linearGradient id="linear-gradient-8" x1="16.5" y1="-12.88" x2="16.5" y2="-27.38" gradientTransform="translate(7.5 -7.5)" xlink:href="#linear-gradient"/><linearGradient id="linear-gradient-10" x1="31.5" y1="-12.88" x2="31.5" y2="-27.38" gradientTransform="translate(-7.5 7.5)" xlink:href="#linear-gradient"/><linearGradient id="linear-gradient-11" x1="39" y1="-12.88" x2="39" y2="-27.38" gradientTransform="translate(-15 15)" xlink:href="#linear-gradient"/><linearGradient id="linear-gradient-12" x1="24" y1="49.62" x2="24" y2="0.76" gradientUnits="userSpaceOnUse"><stop offset="0" stop-color="#f3c57a"/><stop offset="0.49" stop-color="#f39369"/><stop offset="1" stop-color="#e94867"/></linearGradient><linearGradient id="linear-gradient-13" x1="24" y1="48.6" x2="24" y2="-2.84" xlink:href="#linear-gradient-12"/><linearGradient id="linear-gradient-14" x1="24" y1="35.38" x2="24" y2="49.05" xlink:href="#linear-gradient-12"/></defs><title>graph, up, chart, arrow</title><rect class="cls-1" x="3" y="3" width="42" height="42" rx="6.27" ry="6.27"/><path class="cls-2" d="M9,45H9a.75.75,0,0,1-.75-.75V3.75A.75.75,0,0,1,9,3H9a.75.75,0,0,1,.75.75v40.5A.75.75,0,0,1,9,45Z"/><path class="cls-3" d="M16.5,45h0a.75.75,0,0,1-.75-.75V3.75A.75.75,0,0,1,16.5,3h0a.75.75,0,0,1,.75.75v40.5A.75.75,0,0,1,16.5,45Z"/><path class="cls-4" d="M24,45h0a.75.75,0,0,1-.75-.75V3.75A.75.75,0,0,1,24,3h0a.75.75,0,0,1,.75.75v40.5A.75.75,0,0,1,24,45Z"/><path class="cls-5" d="M31.5,45h0a.75.75,0,0,1-.75-.75V3.75A.75.75,0,0,1,31.5,3h0a.75.75,0,0,1,.75.75v40.5A.75.75,0,0,1,31.5,45Z"/><path class="cls-6" d="M39,45h0a.75.75,0,0,1-.75-.75V3.75A.75.75,0,0,1,39,3h0a.75.75,0,0,1,.75.75v40.5A.75.75,0,0,1,39,45Z"/><rect class="cls-7" x="23.25" y="-12" width="1.5" height="42" rx="0.64" ry="0.64" transform="translate(33 -15) rotate(90)"/><rect class="cls-8" x="23.25" y="-4.5" width="1.5" height="42" rx="0.64" ry="0.64" transform="translate(40.5 -7.5) rotate(90)"/><rect class="cls-4" x="23.25" y="3" width="1.5" height="42" rx="0.64" ry="0.64" transform="translate(48 0) rotate(90)"/><rect class="cls-9" x="23.25" y="10.5" width="1.5" height="42" rx="0.64" ry="0.64" transform="translate(55.5 7.5) rotate(90)"/><rect class="cls-10" x="23.25" y="18" width="1.5" height="42" rx="0.64" ry="0.64" transform="translate(63 15) rotate(90)"/><path class="cls-11" d="M35.43,21.9l-10-10a2.08,2.08,0,0,0-2.94,0l-10,10A2.08,2.08,0,0,0,14,25.45h1.74a.72.72,0,0,1,.72.72V45h15V26.17a.72.72,0,0,1,.72-.72H34A2.08,2.08,0,0,0,35.43,21.9Z"/><path class="cls-12" d="M32.22,25.45h0v-.7h3.26a2.11,2.11,0,0,0,.52-1.5H32.25V18.71l-3-3H24.75V11.47a2.08,2.08,0,0,0-1.5,0v4.28H18.71l-3,3v4.54H12a2.11,2.11,0,0,0,.52,1.5h3.26v.7h0a.72.72,0,0,1,.72.72V45a.75.75,0,0,0,.75-.75v-4.5h6v4.5a.75.75,0,0,0,1.5,0v-4.5h6v4.5a.75.75,0,0,0,.75.75V26.17A.72.72,0,0,1,32.22,25.45Zm-9,12.8h-6v-6h6Zm0-7.5h-6v-6h6Zm0-7.5h-6v-6h6Zm7.5,15h-6v-6h6Zm0-7.5h-6v-6h6Zm0-7.5h-6v-6h6Z"/><rect class="cls-13" x="16.5" y="42" width="15" height="3"/></svg>